<?xml version="1.0" encoding="UTF-8"?>
<svg id="Layer_1" data-name="Layer 1" xmlns="http://www.w3.org/2000/svg" viewBox="0 0 785.49 167.39">
  <defs>
    <style>
      .cls-1 {
        fill: #fdfdff;
      }

      .cls-2 {
        fill: #0c94f5;
      }
    </style>
  </defs>
  <g>
    <g>
      <path class="cls-1" d="M476.53,71.26l-15.75.51c-4.64-8.12-10.73-12.46-20.45-11.88-21.89,1.29-28.28,31.22-13.11,44.25,9.67,8.31,25.49,7.2,32.24-4.2.54-.91.88-2.79,1-2.89.78-.68,13.3,1.34,15.48,1.12-3.75,21.83-27.4,31-47.22,24.19-29.74-10.21-34.45-50.55-10.47-69.63,19.62-15.61,53.25-7.51,58.29,18.52Z"/>
      <path class="cls-1" d="M703.99,116.94c-21.68,19.75-55.21-.95-47.63-30,6.38-24.43,40.53-28.12,53.1-6.72,7.21,12.27,4.88,27.29-5.47,36.72ZM683.31,79.19c-18.06,1.41-16.84,29.25-1.93,31.5,23.77,3.6,22.49-33.11,1.93-31.5Z"/>
      <path class="cls-1" d="M521.38,85.02c-.08-15.52,14.57-19.84,27.73-18.46,28.02,2.93,14.99,38.43,18.91,56.74h-12.56l-1.49-5.98c-11.16,13.77-39.42,6.81-35.32-13.19,3.06-14.92,24.02-13.93,35.62-14.32,1.99-12.95-17.27-17.25-19.14-4.19-.8.34-1.78-.6-2.09-.6h-11.66ZM534.72,101.95c-.87.96-1.39,2.98-1.44,4.29-.32,9.28,14.09,8.5,18.6,3,1.45-1.77,3.98-9.55,1.4-10.39-3.1-1.02-16.21.48-18.57,3.09Z"/>
      <path class="cls-1" d="M609.88,45.55v12.26c0,1.73-5.27-.88-6.82-.84-6.26.17-7.55,5.4-6.93,10.71h12.56v11.96h-12.56v43.65h-14.35v-43.65h-8.37v-11.96h8.37c-.19-7.36,0-14.35,6.28-19.14,6-4.57,14.73-4.4,21.83-2.99Z"/>
      <path class="cls-1" d="M636.79,53.33v14.35h13.75v11.96h-13.75v26.01c0,.41,1.08,2.23,1.47,2.72,3.34,4.22,8.51,1.88,12.89,1.17v13.75c-8.67,1.97-21.23,2.5-26.1-6.49-.62-1.14-2.6-6.03-2.6-6.96v-30.2h-8.37v-11.96h8.37v-14.35h14.35Z"/>
      <path class="cls-1" d="M752.2,66.48v15.55c-5.3-.74-12.78-1.24-16.05,3.99-.47.74-1.89,4.09-1.89,4.69v32.59h-14.35v-55.61h13.75v8.37c1.38-.73,1.64-2.38,2.68-3.6,4.17-4.92,9.5-6.51,15.86-5.96Z"/>
      <path class="cls-1" d="M515.4,66.48v15.55c-4.68-.63-11.41-1.27-14.61,3.03-.41.55-2.13,4.09-2.13,4.45v33.79h-14.35v-55.61h13.16l.3,7.77c3.94-6.34,9.98-9.81,17.64-8.97Z"/>
    </g>
    <g>
      <path class="cls-1" d="M357.27,45.2v45.45l19.43-22.72h17.64l-20.25,24.11,21.44,32.69h-17.04l-14.66-22.72c-.96-.66-6.57,5.78-6.57,6.28v16.44h-14.35V45.2h14.35Z"/>
      <path class="cls-1" d="M294.48,67.92l.3,6.58c1.2-.02,2.01-2.18,2.98-3,12.97-10.83,34.38-2.88,34.38,14.65v38.57h-14.95v-34.38c0-1.75-1.92-6.16-3.27-7.5-3.13-3.08-10.58-3.3-14.17-.97-1.69,1.1-4.09,4.8-4.09,6.67v36.18h-14.95v-56.81h13.75Z"/>
      <path class="cls-1" d="M208.97,45.79v64.58h35.58c.06,0,.9.83.9.9v11.36c0,.32-.92,1.33-.6,2.09h-50.53c-.06,0-.9-.83-.9-.9V45.79h15.55Z"/>
      <rect class="cls-1" x="253.82" y="67.92" width="14.95" height="56.81"/>
      <path class="cls-1" d="M259.03,42.94c13.58-2.82,15.9,16.36,3.48,17.22-12.84.89-12.53-15.35-3.48-17.22Z"/>
    </g>
  </g>
  <g>
    <path class="cls-2" d="M130.62,18.09c2.2.79,4.51.92,6.85,1.6,14.95,4.34,24.31,16.54,26.93,31.64-.22,2.81.3,5.99,0,8.75-1.42,13.04-14.65,28.42-24.76,36.14-7.37,5.62-15.95-.21-13.4-8.76,1.35-4.55,14.6-14.41,18.04-19.25,11.73-16.5-4.05-38.53-23.67-33.03-8.82,2.47-15.04,13.29-22,18.79-9.46,7.47-19.41-2.11-11.67-11.68,8.37-10.34,22.43-22.78,36.12-24.19h7.57Z"/>
    <path class="cls-2" d="M74.71,149.3h-7.57c-3.72-.83-7.13-1.53-10.69-3-9.24-3.81-16.6-11.19-20.28-20.51-1.35-3.41-1.98-6.77-2.81-10.31.18-2.45-.25-5.18,0-7.58,1.42-13.81,13.74-27.72,24.15-36.17,7.95-6.45,17.18-.32,13.83,8.6-1.67,4.44-13.41,13.35-17,17.96-15.53,19.91,9.71,45.43,29.64,30.26,5.18-3.95,13.46-15.59,18.95-17.18,7.87-2.27,13.22,6.66,8.47,13.14-3.82,5.21-17.75,18.01-23.48,20.81-3.38,1.65-9.52,3.6-13.21,3.98Z"/>
    <path class="cls-2" d="M116.49,56.13c8.61-1.57,12.97,8.09,7.13,14.14-13.13,10.87-25.52,28.71-38.73,38.78-8.88,6.77-18.04-2.78-11.92-11.35,13.29-11.41,25.34-27.92,38.71-38.79,1.45-1.18,2.88-2.42,4.81-2.77Z"/>
  </g>
</svg>